<?xml version="1.0" encoding="iso-8859-1"?>
<!-- Generator: Adobe Illustrator 19.0.0, SVG Export Plug-In . SVG Version: 6.00 Build 0)  -->
<svg version="1.1" id="Camada_1" xmlns="http://www.w3.org/2000/svg" xmlns:xlink="http://www.w3.org/1999/xlink" x="0px" y="0px"
	 viewBox="0 0 16 16" style="enable-background:new 0 0 16 16;" xml:space="preserve">
<g id="XMLID_1_">
	<path id="XMLID_13_" style="fill:#04879A;" d="M9.864,9.598c0,0,3.417-1.178,3.292-4.712c0,0-1.198,4.32-5.23,3.613
		c0,0-4.651-0.855-3.007-5.891c0,0-1.541,2.618,0,4.87c0,0-1.208-0.89-2.02,0c0,0-0.914,0.022-1.169,0.349
		c0,0,1.047,0.105,1.475,0.209c0,0,1.876,2.356,4.215,2.531c0,0,4.73,0,5.515-0.489L9.864,9.598z"/>
	<path id="XMLID_12_" style="fill:#E27121;" d="M8.93,8.418c0,0-3.147-0.017-4.001-2.946c-0.254-1.093-0.352-2.98,1.945-4.486
		c0,0-1.369,1.511-1.456,3.137C5.418,4.122,4.979,6.677,8.93,8.418z"/>
	<polygon id="XMLID_4_" style="fill:#E27121;" points="7.463,3.625 7.589,2.926 8.307,2.829 7.578,2.706 7.463,1.956 7.356,2.683 
		6.677,2.79 7.327,2.955 	"/>
	<polygon id="XMLID_3_" style="fill:#E27121;" points="9.02,4.459 9.146,3.76 9.864,3.663 9.134,3.54 9.02,2.79 8.913,3.518 
		8.234,3.625 8.884,3.79 	"/>
	<g id="XMLID_8_">
		<g id="XMLID_31_">
			<path id="XMLID_77_" style="fill:#7A7A7A;" d="M6.353,14.954c-0.072,0.04-0.148,0.061-0.229,0.061
				c-0.051,0-0.096-0.009-0.137-0.026c-0.04-0.017-0.075-0.042-0.103-0.073s-0.05-0.068-0.065-0.111
				c-0.015-0.043-0.023-0.091-0.023-0.142c0-0.034,0.004-0.067,0.011-0.099c0.007-0.032,0.018-0.061,0.032-0.089
				c0.014-0.028,0.032-0.053,0.052-0.075c0.021-0.022,0.044-0.042,0.071-0.058c0.027-0.016,0.056-0.029,0.088-0.038
				c0.032-0.009,0.066-0.013,0.103-0.013c0.069,0,0.131,0.012,0.186,0.037v0.072c-0.06-0.033-0.124-0.05-0.193-0.05
				c-0.043,0-0.081,0.008-0.116,0.023c-0.035,0.016-0.064,0.037-0.088,0.064c-0.024,0.027-0.043,0.06-0.056,0.097
				c-0.013,0.037-0.02,0.078-0.021,0.121c0,0.043,0.005,0.083,0.017,0.12c0.012,0.037,0.029,0.068,0.052,0.095
				c0.023,0.027,0.051,0.048,0.084,0.063c0.034,0.015,0.072,0.022,0.116,0.022c0.059,0,0.111-0.012,0.154-0.037v-0.213H6.129v-0.059
				h0.224V14.954z"/>
			<path id="XMLID_74_" style="fill:#7A7A7A;" d="M6.535,14.763c0,0.031,0.004,0.058,0.012,0.083
				c0.008,0.024,0.019,0.045,0.034,0.062c0.015,0.017,0.032,0.03,0.053,0.039c0.021,0.009,0.045,0.013,0.071,0.013
				c0.056,0,0.11-0.02,0.16-0.059v0.062c-0.048,0.034-0.106,0.051-0.174,0.051c-0.034,0-0.064-0.006-0.091-0.018
				c-0.027-0.012-0.051-0.029-0.07-0.051c-0.019-0.022-0.034-0.05-0.044-0.082c-0.01-0.033-0.016-0.07-0.016-0.111
				c0-0.037,0.006-0.072,0.017-0.104c0.011-0.032,0.027-0.059,0.047-0.083c0.02-0.023,0.044-0.042,0.072-0.055
				c0.028-0.013,0.058-0.02,0.091-0.02c0.032,0,0.061,0.006,0.085,0.017c0.025,0.011,0.046,0.027,0.062,0.048
				c0.017,0.021,0.03,0.046,0.038,0.076c0.009,0.03,0.013,0.063,0.013,0.101v0.031H6.535z M6.832,14.709
				c-0.001-0.052-0.013-0.092-0.037-0.121c-0.024-0.029-0.057-0.043-0.099-0.043c-0.021,0-0.041,0.004-0.059,0.011
				c-0.018,0.007-0.034,0.018-0.048,0.032S6.564,14.62,6.555,14.64c-0.009,0.02-0.015,0.043-0.019,0.069H6.832z"/>
			<path id="XMLID_72_" style="fill:#7A7A7A;" d="M7.267,14.566C7.252,14.555,7.233,14.55,7.21,14.55
				c-0.017,0-0.031,0.003-0.044,0.01s-0.024,0.015-0.033,0.026c-0.01,0.011-0.018,0.023-0.024,0.037
				c-0.007,0.014-0.012,0.029-0.016,0.044s-0.007,0.031-0.009,0.046c-0.002,0.016-0.003,0.03-0.003,0.044v0.245H7.019v-0.5h0.062
				v0.107h0.002c0.006-0.018,0.013-0.035,0.022-0.049c0.009-0.014,0.019-0.027,0.031-0.037c0.012-0.01,0.025-0.017,0.038-0.023
				s0.028-0.008,0.044-0.008c0.01,0,0.019,0.001,0.027,0.002c0.008,0.001,0.015,0.003,0.022,0.006V14.566z"/>
			<path id="XMLID_69_" style="fill:#7A7A7A;" d="M7.374,14.763c0,0.031,0.004,0.058,0.012,0.083
				c0.008,0.024,0.019,0.045,0.034,0.062c0.015,0.017,0.032,0.03,0.053,0.039c0.021,0.009,0.045,0.013,0.071,0.013
				c0.056,0,0.11-0.02,0.16-0.059v0.062c-0.048,0.034-0.106,0.051-0.174,0.051c-0.034,0-0.064-0.006-0.091-0.018
				c-0.027-0.012-0.051-0.029-0.07-0.051c-0.019-0.022-0.034-0.05-0.044-0.082c-0.01-0.033-0.016-0.07-0.016-0.111
				c0-0.037,0.006-0.072,0.017-0.104s0.027-0.059,0.047-0.083c0.02-0.023,0.044-0.042,0.072-0.055
				c0.028-0.013,0.058-0.02,0.091-0.02c0.032,0,0.061,0.006,0.085,0.017c0.025,0.011,0.046,0.027,0.062,0.048
				c0.017,0.021,0.03,0.046,0.038,0.076c0.009,0.03,0.013,0.063,0.013,0.101v0.031H7.374z M7.671,14.709
				c-0.001-0.052-0.013-0.092-0.037-0.121c-0.024-0.029-0.057-0.043-0.099-0.043c-0.021,0-0.041,0.004-0.059,0.011
				c-0.018,0.007-0.034,0.018-0.048,0.032S7.403,14.62,7.394,14.64c-0.009,0.02-0.015,0.043-0.019,0.069H7.671z"/>
			<path id="XMLID_67_" style="fill:#7A7A7A;" d="M8.195,15.002v-0.288c0-0.113-0.041-0.169-0.123-0.169
				c-0.022,0-0.042,0.004-0.061,0.013c-0.019,0.009-0.035,0.021-0.048,0.036c-0.014,0.015-0.024,0.033-0.032,0.054
				c-0.008,0.021-0.011,0.044-0.011,0.068v0.286H7.858v-0.5H7.92v0.087h0.002C7.96,14.523,8.015,14.49,8.09,14.49
				c0.055,0,0.096,0.018,0.125,0.053c0.029,0.035,0.043,0.087,0.043,0.154v0.305H8.195z"/>
			<path id="XMLID_65_" style="fill:#7A7A7A;" d="M8.741,14.98c-0.037,0.022-0.082,0.034-0.135,0.035
				c-0.036,0-0.068-0.006-0.097-0.019c-0.029-0.013-0.053-0.03-0.073-0.053c-0.02-0.023-0.036-0.049-0.046-0.08
				c-0.011-0.031-0.016-0.064-0.016-0.1c0-0.037,0.006-0.073,0.017-0.106s0.028-0.062,0.05-0.086
				c0.022-0.025,0.048-0.044,0.08-0.058c0.032-0.014,0.068-0.021,0.108-0.021c0.041,0,0.079,0.008,0.113,0.024v0.066
				c-0.036-0.024-0.076-0.036-0.118-0.036c-0.03,0-0.056,0.006-0.079,0.017s-0.043,0.027-0.058,0.046
				c-0.016,0.019-0.028,0.042-0.036,0.068c-0.008,0.026-0.012,0.053-0.012,0.082c0,0.027,0.003,0.052,0.01,0.077
				c0.007,0.024,0.018,0.046,0.032,0.065c0.014,0.019,0.033,0.034,0.055,0.045c0.022,0.011,0.048,0.017,0.078,0.017
				c0.047,0,0.089-0.014,0.127-0.042V14.98z"/>
			<path id="XMLID_62_" style="fill:#7A7A7A;" d="M8.892,14.376c-0.012,0-0.022-0.004-0.031-0.013
				c-0.009-0.008-0.013-0.019-0.013-0.032c0-0.013,0.004-0.023,0.013-0.031c0.009-0.008,0.019-0.012,0.031-0.012
				c0.006,0,0.012,0.001,0.018,0.003c0.006,0.002,0.01,0.005,0.014,0.009c0.004,0.004,0.007,0.009,0.01,0.014
				c0.002,0.005,0.004,0.011,0.004,0.018c0,0.006-0.001,0.012-0.003,0.018c-0.002,0.006-0.006,0.01-0.01,0.014
				c-0.004,0.004-0.009,0.007-0.014,0.01C8.904,14.375,8.898,14.376,8.892,14.376z M8.861,15.002v-0.5h0.063v0.5H8.861z"/>
			<path id="XMLID_59_" style="fill:#7A7A7A;" d="M9.373,15.002v-0.089H9.371c-0.016,0.032-0.039,0.057-0.067,0.074
				s-0.06,0.026-0.095,0.026c-0.024,0-0.046-0.003-0.065-0.01c-0.019-0.007-0.036-0.017-0.049-0.029
				c-0.014-0.013-0.024-0.028-0.031-0.045c-0.007-0.018-0.011-0.037-0.011-0.058c0-0.045,0.014-0.081,0.042-0.108
				c0.028-0.027,0.07-0.044,0.127-0.052l0.152-0.022c0-0.096-0.037-0.144-0.112-0.144c-0.058,0-0.112,0.021-0.162,0.064V14.54
				c0.01-0.007,0.022-0.014,0.035-0.02c0.013-0.006,0.027-0.011,0.042-0.016c0.015-0.004,0.03-0.008,0.045-0.01
				s0.031-0.004,0.045-0.004c0.056,0,0.098,0.016,0.126,0.047c0.028,0.031,0.043,0.078,0.043,0.14v0.325H9.373z M9.244,14.759
				c-0.022,0.003-0.042,0.007-0.058,0.012c-0.016,0.005-0.029,0.011-0.04,0.02c-0.01,0.008-0.018,0.019-0.023,0.031
				c-0.005,0.012-0.007,0.027-0.007,0.045c0,0.013,0.002,0.026,0.007,0.037s0.012,0.021,0.021,0.03
				c0.009,0.008,0.02,0.015,0.033,0.019C9.19,14.958,9.204,14.96,9.22,14.96c0.022,0,0.042-0.004,0.061-0.013
				c0.019-0.008,0.035-0.02,0.048-0.035c0.013-0.015,0.024-0.033,0.032-0.054c0.008-0.021,0.011-0.043,0.011-0.068v-0.049
				L9.244,14.759z"/>
			<path id="XMLID_57_" style="fill:#7A7A7A;" d="M10.214,15.002v-0.294c0-0.03-0.002-0.055-0.007-0.076
				c-0.005-0.021-0.012-0.038-0.021-0.051c-0.01-0.013-0.022-0.022-0.037-0.028c-0.015-0.006-0.032-0.009-0.053-0.009
				c-0.018,0-0.035,0.004-0.052,0.013c-0.016,0.009-0.031,0.021-0.043,0.036c-0.012,0.015-0.022,0.033-0.029,0.053
				c-0.007,0.021-0.01,0.043-0.01,0.066v0.289H9.9v-0.3c0-0.105-0.04-0.157-0.121-0.157c-0.019,0-0.036,0.004-0.052,0.012
				c-0.016,0.008-0.03,0.02-0.042,0.035c-0.012,0.015-0.021,0.033-0.028,0.054c-0.007,0.021-0.01,0.044-0.01,0.07v0.287H9.586v-0.5
				h0.063v0.081H9.65c0.035-0.062,0.086-0.093,0.154-0.093c0.018,0,0.034,0.003,0.05,0.008c0.016,0.005,0.03,0.013,0.042,0.022
				c0.012,0.01,0.023,0.021,0.032,0.034c0.009,0.013,0.016,0.028,0.02,0.044c0.018-0.035,0.04-0.063,0.069-0.081
				c0.028-0.019,0.06-0.028,0.095-0.028c0.11,0,0.165,0.068,0.165,0.203v0.309H10.214z"/>
			<path id="XMLID_54_" style="fill:#7A7A7A;" d="M10.457,14.763c0,0.031,0.004,0.058,0.012,0.083
				c0.008,0.024,0.019,0.045,0.034,0.062c0.015,0.017,0.032,0.03,0.053,0.039c0.021,0.009,0.045,0.013,0.071,0.013
				c0.056,0,0.11-0.02,0.16-0.059v0.062c-0.048,0.034-0.106,0.051-0.174,0.051c-0.034,0-0.064-0.006-0.091-0.018
				c-0.027-0.012-0.051-0.029-0.07-0.051c-0.019-0.022-0.034-0.05-0.044-0.082c-0.01-0.033-0.016-0.07-0.016-0.111
				c0-0.037,0.006-0.072,0.017-0.104s0.027-0.059,0.047-0.083c0.02-0.023,0.044-0.042,0.072-0.055
				c0.028-0.013,0.058-0.02,0.091-0.02c0.032,0,0.061,0.006,0.085,0.017c0.025,0.011,0.046,0.027,0.062,0.048
				c0.017,0.021,0.03,0.046,0.038,0.076c0.009,0.03,0.013,0.063,0.013,0.101v0.031H10.457z M10.754,14.709
				c-0.001-0.052-0.013-0.092-0.037-0.121c-0.024-0.029-0.057-0.043-0.099-0.043c-0.021,0-0.041,0.004-0.059,0.011
				c-0.018,0.007-0.034,0.018-0.048,0.032s-0.025,0.031-0.034,0.052c-0.009,0.02-0.015,0.043-0.019,0.069H10.754z"/>
			<path id="XMLID_52_" style="fill:#7A7A7A;" d="M11.278,15.002v-0.288c0-0.113-0.041-0.169-0.123-0.169
				c-0.022,0-0.042,0.004-0.061,0.013c-0.019,0.009-0.035,0.021-0.048,0.036c-0.014,0.015-0.024,0.033-0.032,0.054
				c-0.008,0.021-0.011,0.044-0.011,0.068v0.286h-0.063v-0.5h0.063v0.087h0.002c0.037-0.066,0.093-0.099,0.167-0.099
				c0.055,0,0.096,0.018,0.125,0.053c0.029,0.035,0.043,0.087,0.043,0.154v0.305H11.278z"/>
			<path id="XMLID_50_" style="fill:#7A7A7A;" d="M11.706,14.996c-0.021,0.011-0.045,0.016-0.07,0.016
				c-0.081,0-0.121-0.047-0.121-0.14v-0.316h-0.088v-0.055h0.088v-0.126l0.063-0.021v0.146h0.129v0.055h-0.129v0.306
				c0,0.034,0.006,0.058,0.017,0.073c0.011,0.015,0.03,0.022,0.056,0.022c0.02,0,0.038-0.006,0.056-0.018V14.996z"/>
			<path id="XMLID_47_" style="fill:#7A7A7A;" d="M12.006,15.014c-0.037,0-0.07-0.006-0.1-0.019
				c-0.029-0.012-0.055-0.03-0.075-0.052c-0.021-0.023-0.037-0.05-0.048-0.081c-0.011-0.032-0.017-0.067-0.017-0.105
				c0-0.042,0.006-0.079,0.018-0.112c0.012-0.033,0.028-0.061,0.05-0.084c0.022-0.023,0.048-0.04,0.078-0.052
				c0.031-0.012,0.065-0.018,0.103-0.018c0.036,0,0.069,0.006,0.098,0.018c0.029,0.012,0.054,0.029,0.074,0.052
				c0.02,0.022,0.036,0.05,0.046,0.082c0.011,0.032,0.016,0.069,0.016,0.11c0,0.039-0.006,0.075-0.017,0.107
				c-0.011,0.032-0.027,0.06-0.048,0.083c-0.021,0.023-0.046,0.041-0.076,0.054C12.077,15.008,12.044,15.014,12.006,15.014z
				 M12.011,14.545c-0.027,0-0.052,0.005-0.074,0.014c-0.022,0.009-0.041,0.023-0.057,0.041c-0.016,0.018-0.028,0.04-0.036,0.066
				c-0.008,0.026-0.013,0.056-0.013,0.089c0,0.031,0.004,0.059,0.013,0.084c0.008,0.025,0.02,0.047,0.036,0.064
				c0.015,0.018,0.034,0.032,0.056,0.041c0.022,0.01,0.047,0.014,0.074,0.014c0.028,0,0.053-0.005,0.074-0.014
				c0.021-0.009,0.04-0.023,0.055-0.041c0.015-0.018,0.026-0.039,0.034-0.065c0.008-0.026,0.011-0.055,0.011-0.088
				c0-0.067-0.015-0.119-0.045-0.155C12.109,14.562,12.066,14.545,12.011,14.545z"/>
			<path id="XMLID_44_" style="fill:#7A7A7A;" d="M12.999,15.002v-0.088h-0.002c-0.017,0.032-0.04,0.056-0.071,0.073
				c-0.031,0.017-0.066,0.026-0.105,0.026c-0.031,0-0.06-0.006-0.085-0.017c-0.026-0.012-0.047-0.028-0.066-0.05
				c-0.018-0.022-0.032-0.048-0.042-0.079c-0.01-0.031-0.015-0.066-0.015-0.105c0-0.04,0.005-0.077,0.016-0.111
				c0.011-0.033,0.026-0.062,0.046-0.086c0.02-0.024,0.044-0.043,0.072-0.056c0.028-0.013,0.059-0.02,0.094-0.02
				c0.072,0,0.124,0.029,0.155,0.086h0.002v-0.315h0.063v0.74H12.999z M12.999,14.7c0-0.022-0.004-0.042-0.011-0.061
				c-0.007-0.019-0.018-0.035-0.031-0.049c-0.013-0.014-0.029-0.025-0.048-0.033c-0.019-0.008-0.039-0.012-0.062-0.012
				c-0.025,0-0.048,0.005-0.068,0.015c-0.021,0.01-0.039,0.024-0.053,0.042c-0.015,0.018-0.026,0.041-0.035,0.067
				c-0.008,0.026-0.012,0.056-0.012,0.09c0,0.032,0.004,0.06,0.011,0.085c0.008,0.025,0.018,0.046,0.032,0.063
				c0.014,0.017,0.03,0.03,0.05,0.04s0.041,0.014,0.064,0.014c0.025,0,0.048-0.005,0.069-0.014c0.02-0.009,0.038-0.022,0.052-0.038
				s0.025-0.035,0.033-0.056c0.008-0.021,0.011-0.044,0.011-0.069V14.7z"/>
			<path id="XMLID_41_" style="fill:#7A7A7A;" d="M13.252,14.763c0,0.031,0.004,0.058,0.012,0.083
				c0.008,0.024,0.019,0.045,0.034,0.062c0.015,0.017,0.032,0.03,0.053,0.039c0.021,0.009,0.045,0.013,0.071,0.013
				c0.056,0,0.11-0.02,0.16-0.059v0.062c-0.048,0.034-0.106,0.051-0.174,0.051c-0.034,0-0.064-0.006-0.091-0.018
				c-0.027-0.012-0.051-0.029-0.07-0.051c-0.019-0.022-0.034-0.05-0.044-0.082c-0.01-0.033-0.016-0.07-0.016-0.111
				c0-0.037,0.006-0.072,0.017-0.104s0.027-0.059,0.047-0.083c0.02-0.023,0.044-0.042,0.072-0.055
				c0.028-0.013,0.058-0.02,0.091-0.02c0.032,0,0.061,0.006,0.085,0.017c0.025,0.011,0.046,0.027,0.062,0.048
				c0.017,0.021,0.03,0.046,0.038,0.076c0.009,0.03,0.013,0.063,0.013,0.101v0.031H13.252z M13.549,14.709
				c-0.001-0.052-0.013-0.092-0.037-0.121c-0.024-0.029-0.057-0.043-0.099-0.043c-0.021,0-0.041,0.004-0.059,0.011
				c-0.018,0.007-0.034,0.018-0.048,0.032c-0.014,0.014-0.025,0.031-0.034,0.052c-0.009,0.02-0.015,0.043-0.019,0.069H13.549z"/>
			<path id="XMLID_38_" style="fill:#7A7A7A;" d="M14.085,14.73v0.272h-0.065v-0.7h0.181c0.037,0,0.069,0.005,0.098,0.014
				c0.028,0.009,0.052,0.022,0.072,0.04c0.02,0.017,0.034,0.038,0.044,0.063s0.015,0.054,0.015,0.086
				c0,0.033-0.006,0.063-0.017,0.09c-0.011,0.028-0.028,0.051-0.049,0.071c-0.021,0.02-0.047,0.036-0.078,0.047
				c-0.031,0.011-0.065,0.017-0.104,0.017H14.085z M14.085,14.362v0.309h0.093c0.06,0,0.106-0.014,0.137-0.042
				c0.031-0.028,0.047-0.068,0.047-0.119c0-0.099-0.058-0.148-0.173-0.148H14.085z"/>
			<path id="XMLID_36_" style="fill:#7A7A7A;" d="M14.637,15.002h-0.065v-0.7h0.065V15.002z"/>
			<path id="XMLID_34_" style="fill:#7A7A7A;" d="M14.83,14.515h-0.047l0.058-0.219h0.062L14.83,14.515z"/>
			<path id="XMLID_32_" style="fill:#7A7A7A;" d="M15.013,14.9c0.012,0.009,0.025,0.017,0.039,0.024
				c0.014,0.007,0.029,0.013,0.043,0.018c0.015,0.005,0.03,0.008,0.045,0.011c0.015,0.002,0.029,0.004,0.043,0.004
				c0.053,0,0.093-0.01,0.119-0.031c0.026-0.021,0.04-0.05,0.04-0.088c0-0.019-0.003-0.035-0.009-0.049
				c-0.006-0.014-0.016-0.027-0.029-0.039c-0.013-0.012-0.029-0.024-0.049-0.036c-0.02-0.012-0.043-0.025-0.07-0.04
				c-0.03-0.016-0.056-0.032-0.077-0.046c-0.021-0.014-0.039-0.029-0.052-0.044c-0.014-0.015-0.023-0.031-0.03-0.049
				s-0.01-0.038-0.01-0.06c0-0.028,0.006-0.054,0.018-0.076c0.012-0.022,0.028-0.042,0.049-0.057
				c0.021-0.016,0.045-0.028,0.072-0.036c0.028-0.008,0.057-0.013,0.088-0.013c0.055,0,0.101,0.008,0.138,0.023v0.072
				c-0.041-0.024-0.09-0.036-0.146-0.036c-0.021,0-0.04,0.003-0.059,0.008c-0.018,0.005-0.035,0.012-0.048,0.022
				c-0.014,0.01-0.025,0.022-0.033,0.036c-0.008,0.014-0.012,0.031-0.012,0.051c0,0.018,0.003,0.034,0.008,0.047
				c0.005,0.013,0.014,0.026,0.026,0.037c0.012,0.012,0.027,0.023,0.047,0.035c0.019,0.012,0.043,0.025,0.071,0.04
				c0.029,0.016,0.055,0.031,0.077,0.046c0.022,0.015,0.04,0.03,0.054,0.046c0.014,0.016,0.025,0.033,0.032,0.051
				c0.007,0.018,0.011,0.038,0.011,0.06c0,0.031-0.006,0.058-0.017,0.081c-0.011,0.023-0.027,0.043-0.048,0.058
				c-0.021,0.015-0.045,0.027-0.073,0.035c-0.028,0.008-0.059,0.012-0.093,0.012c-0.011,0-0.024-0.001-0.04-0.003
				c-0.015-0.002-0.031-0.004-0.046-0.008c-0.016-0.003-0.031-0.007-0.045-0.012c-0.014-0.005-0.026-0.01-0.034-0.015V14.9z"/>
		</g>
		<g id="XMLID_9_">
			<path id="XMLID_29_" style="fill:#04879A;" d="M2.007,12.875H1.261v0.948H0.964v-2.133h1.172v0.229H1.261v0.73h0.746V12.875z"/>
			<path id="XMLID_26_" style="fill:#04879A;" d="M2.707,12.904v0.919H2.41v-2.132h0.628c0.205,0,0.364,0.052,0.475,0.157
				c0.112,0.105,0.168,0.254,0.168,0.45c0,0.111-0.026,0.209-0.078,0.292c-0.052,0.084-0.127,0.148-0.225,0.194
				c0.109,0.037,0.188,0.099,0.237,0.185c0.048,0.086,0.073,0.192,0.073,0.319v0.186c0,0.065,0.006,0.126,0.019,0.183
				c0.013,0.057,0.035,0.101,0.067,0.132v0.034H3.467c-0.033-0.032-0.055-0.081-0.065-0.147c-0.01-0.066-0.015-0.134-0.015-0.204
				v-0.18c0-0.119-0.028-0.213-0.083-0.283c-0.055-0.069-0.132-0.104-0.229-0.104H2.707z M2.707,12.677h0.316
				c0.123,0,0.214-0.032,0.273-0.097c0.059-0.065,0.088-0.157,0.088-0.276c0-0.122-0.029-0.217-0.086-0.284
				c-0.057-0.067-0.144-0.101-0.26-0.101H2.707V12.677z"/>
			<path id="XMLID_24_" style="fill:#04879A;" d="M5.099,12.832H4.376v0.765h0.853v0.226h-1.15v-2.133h1.143v0.229H4.376v0.687
				h0.724V12.832z"/>
			<path id="XMLID_22_" style="fill:#04879A;" d="M6.548,12.832H5.825v0.765h0.853v0.226h-1.15v-2.133H6.67v0.229H5.825v0.687h0.724
				V12.832z"/>
			<path id="XMLID_20_" style="fill:#E27121;" d="M8.063,13.696h0.009l0.891-2.007h0.089v2.133H8.973v-1.938l-0.009-0.001
				L8.1,13.822H8.037L7.153,11.84l-0.009,0.001v1.981H7.065v-2.133h0.11L8.063,13.696z"/>
			<path id="XMLID_17_" style="fill:#E27121;" d="M11.148,12.916c0,0.288-0.071,0.516-0.214,0.685
				c-0.143,0.168-0.339,0.253-0.589,0.253c-0.251,0-0.448-0.084-0.591-0.253c-0.143-0.168-0.215-0.397-0.215-0.685v-0.319
				c0-0.287,0.071-0.515,0.213-0.684c0.142-0.169,0.339-0.253,0.59-0.253c0.25,0,0.447,0.084,0.59,0.253
				c0.144,0.169,0.215,0.397,0.215,0.684V12.916z M11.069,12.593c0-0.262-0.063-0.47-0.189-0.624
				c-0.126-0.154-0.305-0.231-0.538-0.231c-0.231,0-0.41,0.077-0.535,0.231c-0.125,0.154-0.188,0.362-0.188,0.624v0.322
				c0,0.264,0.063,0.473,0.188,0.627c0.125,0.154,0.304,0.231,0.537,0.231c0.232,0,0.411-0.077,0.536-0.231
				c0.125-0.154,0.188-0.363,0.188-0.628V12.593z"/>
			<path id="XMLID_14_" style="fill:#E27121;" d="M13.146,12.916c0,0.288-0.071,0.516-0.214,0.685
				c-0.143,0.168-0.339,0.253-0.589,0.253c-0.251,0-0.448-0.084-0.591-0.253c-0.143-0.168-0.215-0.397-0.215-0.685v-0.319
				c0-0.287,0.071-0.515,0.213-0.684c0.142-0.169,0.339-0.253,0.59-0.253c0.25,0,0.447,0.084,0.59,0.253
				c0.144,0.169,0.215,0.397,0.215,0.684V12.916z M13.067,12.593c0-0.262-0.063-0.47-0.189-0.624
				c-0.126-0.154-0.305-0.231-0.538-0.231c-0.231,0-0.41,0.077-0.535,0.231c-0.125,0.154-0.188,0.362-0.188,0.624v0.322
				c0,0.264,0.063,0.473,0.188,0.627c0.125,0.154,0.304,0.231,0.537,0.231c0.232,0,0.411-0.077,0.536-0.231
				c0.125-0.154,0.188-0.363,0.188-0.628V12.593z"/>
			<path id="XMLID_10_" style="fill:#E27121;" d="M15.171,13.822h-0.079l-1.368-1.986l-0.009,0.003v1.984h-0.081v-2.133h0.081
				l1.368,1.982l0.009-0.003v-1.979h0.079V13.822z"/>
		</g>
	</g>
</g>
</svg>
